<svg width="24" height="24" viewBox="0 0 24 24" fill="none" xmlns="http://www.w3.org/2000/svg">
<path fill-rule="evenodd" clip-rule="evenodd" d="M2 0C0.895431 0 0 0.89543 0 2V22C0 23.1046 0.89543 24 2 24H22C23.1046 24 24 23.1046 24 22V2C24 0.895431 23.1046 0 22 0H2ZM10.0135 17.5103L10.2781 13.7876L17.0961 7.6656C17.3928 7.40294 17.0321 7.2576 16.6355 7.52027L8.20679 12.7943L4.57812 11.6656C3.78879 11.4209 3.77412 10.8809 4.74279 10.5049L18.9361 5.07094C19.5935 4.82627 20.1681 5.21627 19.9541 6.2136L19.9535 6.21427L17.5388 17.5289C17.3568 18.3276 16.8815 18.5256 16.2068 18.1496L12.5281 15.4556L10.7528 17.1523C10.5561 17.3476 10.3921 17.5103 10.0135 17.5103Z" fill="#CDA177"/>
</svg>
