<svg width="24" height="24" viewBox="0 0 24 24" fill="none" xmlns="http://www.w3.org/2000/svg">
<path fill-rule="evenodd" clip-rule="evenodd" d="M2 0C0.895431 0 0 0.89543 0 2V22C0 23.1046 0.89543 24 2 24H22C23.1046 24 24 23.1046 24 22V2C24 0.895431 23.1046 0 22 0H2ZM11.998 4H12.002C16.413 4 20 7.589 20 12C20 16.411 16.413 20 12.002 20C10.375 20 8.866 19.516 7.601 18.678L4.526 19.661L5.523 16.689C4.564 15.372 4 13.75 4 12C4 7.588 7.587 4 11.998 4ZM15.087 16.426C15.698 16.294 16.464 15.842 16.657 15.297C16.85 14.751 16.85 14.286 16.794 14.187C16.7488 14.1085 16.6419 14.057 16.4822 13.9801C16.4407 13.9601 16.3955 13.9384 16.347 13.914C16.112 13.797 14.969 13.232 14.753 13.157C14.541 13.077 14.339 13.105 14.179 13.331C14.1486 13.3736 14.1182 13.4163 14.088 13.4588C13.895 13.7303 13.7088 13.9921 13.554 14.159C13.413 14.309 13.183 14.328 12.99 14.248C12.969 14.2392 12.9448 14.2295 12.9178 14.2186C12.6122 14.0952 11.9345 13.8214 11.114 13.091C10.422 12.475 9.952 11.708 9.816 11.478C9.68247 11.2473 9.79765 11.112 9.9041 10.9869L9.91 10.98C9.97863 10.8951 10.0452 10.8244 10.1122 10.7533C10.1603 10.7022 10.2086 10.6509 10.258 10.594C10.2653 10.5855 10.2725 10.5773 10.2794 10.5694C10.3842 10.4488 10.4467 10.3771 10.517 10.227C10.597 10.072 10.54 9.912 10.483 9.794C10.4438 9.71136 10.2015 9.12354 9.99354 8.61894C9.90455 8.40302 9.82184 8.20234 9.764 8.063C9.609 7.692 9.491 7.678 9.256 7.668C9.2488 7.66764 9.24153 7.66727 9.23419 7.6669C9.1599 7.66314 9.07809 7.659 8.988 7.659C8.682 7.659 8.363 7.749 8.17 7.946C8.16326 7.95289 8.15623 7.96004 8.14893 7.96746C7.90202 8.21857 7.352 8.77794 7.352 9.893C7.352 11.0102 8.1447 12.0914 8.29138 12.2915C8.29542 12.297 8.29897 12.3018 8.302 12.306C8.31083 12.3176 8.32746 12.3417 8.35167 12.3767C8.65115 12.8104 10.1098 14.9228 12.285 15.824C14.123 16.586 14.669 16.515 15.087 16.426Z" fill="#CDA177"/>
</svg>
