<svg width="20" height="19" viewBox="0 0 20 19" fill="none" xmlns="http://www.w3.org/2000/svg">
<path d="M19.3191 16.678H0.681564C0.561028 16.678 0.4646 16.7744 0.4646 16.8923V18.4994C0.4646 18.6173 0.561028 18.7137 0.681564 18.7137H19.3191C19.4396 18.7137 19.536 18.6173 19.536 18.4994V16.8923C19.536 16.7744 19.4396 16.678 19.3191 16.678ZM9.83156 13.7048C9.85161 13.7304 9.87722 13.7511 9.90646 13.7654C9.93569 13.7796 9.96779 13.787 10.0003 13.787C10.0328 13.787 10.0649 13.7796 10.0942 13.7654C10.1234 13.7511 10.149 13.7304 10.1691 13.7048L13.1691 9.90926C13.2789 9.76998 13.1798 9.56373 13.0003 9.56373H11.0155V0.499442C11.0155 0.381585 10.9191 0.285156 10.8012 0.285156H9.19406C9.07621 0.285156 8.97978 0.381585 8.97978 0.499442V9.56105H7.00031C6.82085 9.56105 6.72174 9.7673 6.83156 9.90659L9.83156 13.7048Z" fill="#393939"/>
</svg>
