<svg width="24" height="25" viewBox="0 0 24 25" fill="none" xmlns="http://www.w3.org/2000/svg">
<path d="M21.3191 19.679H2.68156C2.56103 19.679 2.4646 19.7754 2.4646 19.8933V21.5004C2.4646 21.6183 2.56103 21.7147 2.68156 21.7147H21.3191C21.4396 21.7147 21.536 21.6183 21.536 21.5004V19.8933C21.536 19.7754 21.4396 19.679 21.3191 19.679ZM11.8316 16.7058C11.8516 16.7314 11.8772 16.7521 11.9065 16.7663C11.9357 16.7806 11.9678 16.788 12.0003 16.788C12.0328 16.788 12.0649 16.7806 12.0942 16.7663C12.1234 16.7521 12.149 16.7314 12.1691 16.7058L15.1691 12.9102C15.2789 12.771 15.1798 12.5647 15.0003 12.5647H13.0155V3.50042C13.0155 3.38256 12.9191 3.28613 12.8012 3.28613H11.1941C11.0762 3.28613 10.9798 3.38256 10.9798 3.50042V12.562H9.00032C8.82085 12.562 8.72174 12.7683 8.83157 12.9076L11.8316 16.7058Z" fill="#E5E5E5"/>
</svg>
