<svg width="201" height="78" viewBox="0 0 201 78" fill="none" xmlns="http://www.w3.org/2000/svg">
<g clip-path="url(#clip0_3686_108)">
<path d="M38.7944 72.6633L4.3992 38.333V26.0212L38.7944 60.3516V21.8741H35.3471V34.8338L0.951904 0.477539V5.31153L35.3471 39.6678V52.0703L0.951904 17.7399V56.2045H4.3992V43.2447L38.7944 77.5233V72.6633Z" fill="#393939"/>
</g>
<path d="M77.6838 25.7056H81.468V52.1953H77.6838V25.7056ZM62.4711 52.1953H58.6868V25.7056H62.4711V52.1953ZM78.0243 40.3885H62.0927V37.0962H78.0243V40.3885ZM101.65 52.4981C99.6316 52.4981 97.7521 52.1575 96.0113 51.4763C94.2958 50.7951 92.8073 49.8491 91.5459 48.6381C90.2845 47.4019 89.3006 45.9639 88.5942 44.3241C87.8878 42.6842 87.5346 40.893 87.5346 38.9504C87.5346 37.0079 87.8878 35.2167 88.5942 33.5768C89.3006 31.937 90.2845 30.5116 91.5459 29.3006C92.8073 28.0644 94.2958 27.1058 96.0113 26.4246C97.7269 25.7434 99.6064 25.4028 101.65 25.4028C103.668 25.4028 105.522 25.7434 107.213 26.4246C108.928 27.0805 110.417 28.0266 111.678 29.2628C112.965 30.4737 113.949 31.8991 114.63 33.539C115.336 35.1788 115.689 36.9826 115.689 38.9504C115.689 40.9183 115.336 42.7221 114.63 44.3619C113.949 46.0018 112.965 47.4398 111.678 48.676C110.417 49.8869 108.928 50.833 107.213 51.5141C105.522 52.1701 103.668 52.4981 101.65 52.4981ZM101.65 49.1301C103.113 49.1301 104.463 48.8778 105.699 48.3732C106.96 47.8687 108.045 47.1623 108.953 46.254C109.887 45.3206 110.606 44.2358 111.11 42.9996C111.64 41.7634 111.905 40.4137 111.905 38.9504C111.905 37.4872 111.64 36.1375 111.11 34.9013C110.606 33.6651 109.887 32.5929 108.953 31.6847C108.045 30.7512 106.96 30.0322 105.699 29.5277C104.463 29.0231 103.113 28.7708 101.65 28.7708C100.161 28.7708 98.7865 29.0231 97.525 29.5277C96.2889 30.0322 95.204 30.7512 94.2706 31.6847C93.3371 32.5929 92.6055 33.6651 92.0757 34.9013C91.5712 36.1375 91.3189 37.4872 91.3189 38.9504C91.3189 40.4137 91.5712 41.7634 92.0757 42.9996C92.6055 44.2358 93.3371 45.3206 94.2706 46.254C95.204 47.1623 96.2889 47.8687 97.525 48.3732C98.7865 48.8778 100.161 49.1301 101.65 49.1301ZM124.966 40.2749V37.1719H139.156V40.2749H124.966ZM128.371 25.4028C130.289 25.4028 132.055 25.7434 133.669 26.4246C135.284 27.0805 136.684 28.0266 137.87 29.2628C139.081 30.4737 140.014 31.8991 140.67 33.539C141.351 35.1788 141.692 36.9826 141.692 38.9504C141.692 40.9183 141.351 42.7221 140.67 44.3619C140.014 46.0018 139.081 47.4398 137.87 48.676C136.684 49.8869 135.284 50.833 133.669 51.5141C132.055 52.1701 130.289 52.4981 128.371 52.4981C126.252 52.4981 124.297 52.1449 122.506 51.4385C120.74 50.7321 119.251 49.6977 118.04 48.3354L120.424 45.9513C121.484 47.0361 122.657 47.8308 123.944 48.3354C125.256 48.8399 126.668 49.0922 128.182 49.0922C129.57 49.0922 130.856 48.8399 132.042 48.3354C133.228 47.8308 134.25 47.137 135.107 46.254C135.99 45.3458 136.671 44.2736 137.151 43.0374C137.63 41.776 137.87 40.4137 137.87 38.9504C137.87 37.4872 137.63 36.1375 137.151 34.9013C136.671 33.6399 135.99 32.5677 135.107 31.6847C134.25 30.7765 133.228 30.0701 132.042 29.5655C130.856 29.0609 129.57 28.8087 128.182 28.8087C126.668 28.8087 125.256 29.0609 123.944 29.5655C122.657 30.0701 121.484 30.8648 120.424 31.9496L118.04 29.5655C119.251 28.2032 120.74 27.1688 122.506 26.4624C124.297 25.756 126.252 25.4028 128.371 25.4028ZM165.647 52.1953L156.035 39.1397L159.101 37.2475L169.961 52.1953H165.647ZM147.824 52.1953V25.7056H151.532V52.1953H147.824ZM150.397 40.5398V37.2097H158.987V40.5398H150.397ZM159.441 39.3667L155.96 38.8369L165.458 25.7056H169.507L159.441 39.3667ZM185.611 52.4981C183.593 52.4981 181.726 52.1701 180.01 51.5141C178.32 50.833 176.844 49.8869 175.583 48.676C174.347 47.4398 173.375 46.0018 172.669 44.3619C171.963 42.7221 171.609 40.9183 171.609 38.9504C171.609 36.9826 171.963 35.1788 172.669 33.539C173.375 31.8991 174.359 30.4737 175.621 29.2628C176.882 28.0266 178.358 27.0805 180.048 26.4246C181.764 25.7434 183.631 25.4028 185.649 25.4028C187.692 25.4028 189.572 25.756 191.287 26.4624C193.028 27.1436 194.504 28.1653 195.715 29.5277L193.255 31.9117C192.246 30.8522 191.111 30.0701 189.849 29.5655C188.588 29.0357 187.238 28.7708 185.8 28.7708C184.312 28.7708 182.924 29.0231 181.638 29.5277C180.376 30.0322 179.279 30.7386 178.345 31.6469C177.412 32.5551 176.68 33.6399 176.15 34.9013C175.646 36.1375 175.394 37.4872 175.394 38.9504C175.394 40.4137 175.646 41.776 176.15 43.0374C176.68 44.2736 177.412 45.3458 178.345 46.254C179.279 47.1623 180.376 47.8687 181.638 48.3732C182.924 48.8778 184.312 49.1301 185.8 49.1301C187.238 49.1301 188.588 48.8778 189.849 48.3732C191.111 47.8434 192.246 47.0361 193.255 45.9513L195.715 48.3354C194.504 49.6977 193.028 50.7321 191.287 51.4385C189.572 52.1449 187.68 52.4981 185.611 52.4981Z" fill="#393939"/>
<defs>
<clipPath id="clip0_3686_108">
<rect width="37.8425" height="77.0457" fill="white" transform="translate(0.951904 0.477539)"/>
</clipPath>
</defs>
</svg>
