<svg width="201" height="78" viewBox="0 0 201 78" fill="none" xmlns="http://www.w3.org/2000/svg">
<g clip-path="url(#clip0_3986_154)">
<path d="M38.7944 72.663L4.3992 38.3326V26.0208L38.7944 60.3512V21.8737H35.3471V34.8335L0.951904 0.477173V5.31116L35.3471 39.6675V52.0699L0.951904 17.7396V56.2041H4.3992V43.2443L38.7944 77.5229V72.663Z" fill="#F2F2F2"/>
</g>
<path d="M77.6838 25.7052H81.468V52.1949H77.6838V25.7052ZM62.4711 52.1949H58.6868V25.7052H62.4711V52.1949ZM78.0243 40.3881H62.0927V37.0958H78.0243V40.3881ZM101.65 52.4977C99.6316 52.4977 97.7521 52.1571 96.0113 51.4759C94.2958 50.7948 92.8073 49.8487 91.5459 48.6378C90.2845 47.4016 89.3006 45.9636 88.5942 44.3237C87.8878 42.6839 87.5346 40.8927 87.5346 38.9501C87.5346 37.0075 87.8878 35.2163 88.5942 33.5765C89.3006 31.9366 90.2845 30.5112 91.5459 29.3003C92.8073 28.0641 94.2958 27.1054 96.0113 26.4242C97.7269 25.7431 99.6064 25.4025 101.65 25.4025C103.668 25.4025 105.522 25.7431 107.213 26.4242C108.928 27.0802 110.417 28.0262 111.678 29.2624C112.965 30.4734 113.949 31.8988 114.63 33.5386C115.336 35.1784 115.689 36.9823 115.689 38.9501C115.689 40.9179 115.336 42.7217 114.63 44.3616C113.949 46.0014 112.965 47.4394 111.678 48.6756C110.417 49.8866 108.928 50.8326 107.213 51.5138C105.522 52.1697 103.668 52.4977 101.65 52.4977ZM101.65 49.1297C103.113 49.1297 104.463 48.8774 105.699 48.3729C106.96 47.8683 108.045 47.1619 108.953 46.2537C109.887 45.3202 110.606 44.2354 111.11 42.9992C111.64 41.763 111.905 40.4133 111.905 38.9501C111.905 37.4868 111.64 36.1371 111.11 34.9009C110.606 33.6647 109.887 32.5925 108.953 31.6843C108.045 30.7509 106.96 30.0319 105.699 29.5273C104.463 29.0227 103.113 28.7705 101.65 28.7705C100.161 28.7705 98.7865 29.0227 97.525 29.5273C96.2889 30.0319 95.204 30.7509 94.2706 31.6843C93.3371 32.5925 92.6055 33.6647 92.0757 34.9009C91.5712 36.1371 91.3189 37.4868 91.3189 38.9501C91.3189 40.4133 91.5712 41.763 92.0757 42.9992C92.6055 44.2354 93.3371 45.3202 94.2706 46.2537C95.204 47.1619 96.2889 47.8683 97.525 48.3729C98.7865 48.8774 100.161 49.1297 101.65 49.1297ZM124.966 40.2746V37.1715H139.156V40.2746H124.966ZM128.371 25.4025C130.289 25.4025 132.055 25.7431 133.669 26.4242C135.284 27.0802 136.684 28.0262 137.87 29.2624C139.081 30.4734 140.014 31.8988 140.67 33.5386C141.351 35.1784 141.692 36.9823 141.692 38.9501C141.692 40.9179 141.351 42.7217 140.67 44.3616C140.014 46.0014 139.081 47.4394 137.87 48.6756C136.684 49.8866 135.284 50.8326 133.669 51.5138C132.055 52.1697 130.289 52.4977 128.371 52.4977C126.252 52.4977 124.297 52.1445 122.506 51.4381C120.74 50.7317 119.251 49.6973 118.04 48.335L120.424 45.9509C121.484 47.0358 122.657 47.8304 123.944 48.335C125.256 48.8396 126.668 49.0919 128.182 49.0919C129.57 49.0919 130.856 48.8396 132.042 48.335C133.228 47.8304 134.25 47.1367 135.107 46.2537C135.99 45.3455 136.671 44.2733 137.151 43.0371C137.63 41.7757 137.87 40.4133 137.87 38.9501C137.87 37.4868 137.63 36.1371 137.151 34.9009C136.671 33.6395 135.99 32.5673 135.107 31.6843C134.25 30.7761 133.228 30.0697 132.042 29.5651C130.856 29.0606 129.57 28.8083 128.182 28.8083C126.668 28.8083 125.256 29.0606 123.944 29.5651C122.657 30.0697 121.484 30.8644 120.424 31.9492L118.04 29.5651C119.251 28.2028 120.74 27.1685 122.506 26.4621C124.297 25.7557 126.252 25.4025 128.371 25.4025ZM165.647 52.1949L156.035 39.1393L159.101 37.2472L169.961 52.1949H165.647ZM147.824 52.1949V25.7052H151.532V52.1949H147.824ZM150.397 40.5395V37.2093H158.987V40.5395H150.397ZM159.441 39.3663L155.96 38.8366L165.458 25.7052H169.507L159.441 39.3663ZM185.611 52.4977C183.593 52.4977 181.726 52.1697 180.01 51.5138C178.32 50.8326 176.844 49.8866 175.583 48.6756C174.347 47.4394 173.375 46.0014 172.669 44.3616C171.963 42.7217 171.609 40.9179 171.609 38.9501C171.609 36.9823 171.963 35.1784 172.669 33.5386C173.375 31.8988 174.359 30.4734 175.621 29.2624C176.882 28.0262 178.358 27.0802 180.048 26.4242C181.764 25.7431 183.631 25.4025 185.649 25.4025C187.692 25.4025 189.572 25.7557 191.287 26.4621C193.028 27.1432 194.504 28.165 195.715 29.5273L193.255 31.9114C192.246 30.8518 191.111 30.0697 189.849 29.5651C188.588 29.0354 187.238 28.7705 185.8 28.7705C184.312 28.7705 182.924 29.0227 181.638 29.5273C180.376 30.0319 179.279 30.7383 178.345 31.6465C177.412 32.5547 176.68 33.6395 176.15 34.9009C175.646 36.1371 175.394 37.4868 175.394 38.9501C175.394 40.4133 175.646 41.7757 176.15 43.0371C176.68 44.2733 177.412 45.3455 178.345 46.2537C179.279 47.1619 180.376 47.8683 181.638 48.3729C182.924 48.8774 184.312 49.1297 185.8 49.1297C187.238 49.1297 188.588 48.8774 189.849 48.3729C191.111 47.8431 192.246 47.0358 193.255 45.9509L195.715 48.335C194.504 49.6973 193.028 50.7317 191.287 51.4381C189.572 52.1445 187.68 52.4977 185.611 52.4977Z" fill="#F2F2F2"/>
<defs>
<clipPath id="clip0_3986_154">
<rect width="37.8425" height="77.0457" fill="white" transform="translate(0.951904 0.477173)"/>
</clipPath>
</defs>
</svg>
